<?xml version="1.0" encoding="UTF-8" standalone="no"?>
<!DOCTYPE svg PUBLIC "-//W3C//DTD SVG 1.1//EN"
 "http://www.w3.org/Graphics/SVG/1.1/DTD/svg11.dtd">
<!-- Generated by graphviz version 2.40.1 (20161225.0304)
 -->
<!-- Title: dependencies Pages: 1 -->
<svg width="504pt" height="211pt"
 viewBox="0.00 0.00 504.00 211.00" xmlns="http://www.w3.org/2000/svg" xmlns:xlink="http://www.w3.org/1999/xlink">
<g id="graph0" class="graph" transform="scale(1 1) rotate(0) translate(4 207)">
<title>dependencies</title>
<polygon fill="#ffffff" stroke="transparent" points="-4,4 -4,-207 500,-207 500,4 -4,4"/>
<text text-anchor="start" x="227.0091" y="-42.4" font-family="sans-serif" font-weight="bold" font-size="14.00" fill="#000000">Legend</text>
<polygon fill="#ffffb3" stroke="transparent" points="14,-10 14,-30 34,-30 34,-10 14,-10"/>
<text text-anchor="start" x="37.629" y="-15.4" font-family="sans-serif" font-size="14.00" fill="#000000"> &#160;Declarations</text>
<polygon fill="#8dd3c7" stroke="transparent" points="127,-10 127,-30 147,-30 147,-10 127,-10"/>
<text text-anchor="start" x="150.7251" y="-15.4" font-family="sans-serif" font-size="14.00" fill="#000000"> &#160;Module</text>
<polygon fill="#80b1d3" stroke="transparent" points="213,-10 213,-30 233,-30 233,-10 213,-10"/>
<text text-anchor="start" x="236.7812" y="-15.4" font-family="sans-serif" font-size="14.00" fill="#000000"> &#160;Bootstrap</text>
<polygon fill="#fdb462" stroke="transparent" points="310,-10 310,-30 330,-30 330,-10 310,-10"/>
<text text-anchor="start" x="333.6732" y="-15.4" font-family="sans-serif" font-size="14.00" fill="#000000"> &#160;Providers</text>
<polygon fill="#fb8072" stroke="transparent" points="406,-10 406,-30 426,-30 426,-10 406,-10"/>
<text text-anchor="start" x="429.7258" y="-15.4" font-family="sans-serif" font-size="14.00" fill="#000000"> &#160;Exports</text>
<g id="clust1" class="cluster">
<title>cluster_AppModule</title>
<polygon fill="none" stroke="#000000" stroke-dasharray="1,5" points="81,-70 81,-195 415,-195 415,-70 81,-70"/>
</g>
<g id="clust6" class="cluster">
<title>cluster_AppModule_providers</title>
<polygon fill="none" stroke="#000000" points="89,-78 89,-130 407,-130 407,-78 89,-78"/>
</g>
<!-- AppDataService -->
<g id="node1" class="node">
<title>AppDataService</title>
<ellipse fill="#fdb462" stroke="#000000" cx="324" cy="-104" rx="74.6976" ry="18"/>
<text text-anchor="middle" x="324" y="-99.8" font-family="Times,serif" font-size="14.00" fill="#000000">AppDataService</text>
</g>
<!-- AppModule -->
<g id="node3" class="node">
<title>AppModule</title>
<polygon fill="#8dd3c7" stroke="#000000" points="285.6571,-187 282.6571,-191 261.6571,-191 258.6571,-187 202.3429,-187 202.3429,-151 285.6571,-151 285.6571,-187"/>
<text text-anchor="middle" x="244" y="-164.8" font-family="Times,serif" font-size="14.00" fill="#000000">AppModule</text>
</g>
<!-- AppDataService&#45;&gt;AppModule -->
<g id="edge1" class="edge">
<title>AppDataService&#45;&gt;AppModule</title>
<path fill="none" stroke="#000000" d="M267.4898,-115.922C267.4898,-115.922 267.4898,-140.7669 267.4898,-140.7669"/>
<polygon fill="#000000" stroke="#000000" points="263.9899,-140.7669 267.4898,-150.7669 270.9899,-140.7669 263.9899,-140.7669"/>
</g>
<!-- PythonService -->
<g id="node2" class="node">
<title>PythonService</title>
<ellipse fill="#fdb462" stroke="#000000" cx="164" cy="-104" rx="67.2158" ry="18"/>
<text text-anchor="middle" x="164" y="-99.8" font-family="Times,serif" font-size="14.00" fill="#000000">PythonService</text>
</g>
<!-- PythonService&#45;&gt;AppModule -->
<g id="edge2" class="edge">
<title>PythonService&#45;&gt;AppModule</title>
<path fill="none" stroke="#000000" d="M216.7648,-115.3221C216.7648,-115.3221 216.7648,-140.9424 216.7648,-140.9424"/>
<polygon fill="#000000" stroke="#000000" points="213.2649,-140.9424 216.7648,-150.9424 220.2649,-140.9425 213.2649,-140.9424"/>
</g>
</g>
</svg>
